# xmcd CD database file generated by OrangeCD 6.3
#
# Track frame offsets:
#	182
#	15520
#	29880
#	52412
#	71262
#	86795
#	109820
#	135185
#	154132
#	178915
#
# Disc length: 2767 seconds
#
# Revision: 4
# Processed by: cddbd v1.5.2PL0 Copyright (c) Steve Scherf et al.
# Submitted via: OrangeCD 6.3
#
DISCID=890acd0a
DTITLE=Lonnie Brooks - Reconsider Baby
DYEAR=1995
DGENRE=Electric Chicago Blues
TTITLE0=Mama Talk To Your Daughter
TTITLE1=Reconsider Baby
TTITLE2=Sweet Home Chicago
TTITLE3=Things I Used To Do
TTITLE4=Big Leg Woman
TTITLE5=The Train And The Horse
TTITLE6=Crosscut Saw
TTITLE7=Woke Up This Morning
TTITLE8=Crazy 'Bout You Baby
TTITLE9=Two Guitars Shuffle
EXTD=
EXTT0=
EXTT1=
EXTT2=
EXTT3=
EXTT4=
EXTT5=
EXTT6=
EXTT7=
EXTT8=
EXTT9=
PLAYORDER=
